<?xml version="1.0" encoding="UTF-8"?>
<svg id="Layer_1" data-name="Layer 1" xmlns="http://www.w3.org/2000/svg" viewBox="0 0 128 128">
  <defs>
    <style>
      .cls-1 {
        fill: #478cbf;
      }

      .cls-1, .cls-2, .cls-3 {
        stroke-width: 0px;
      }

      .cls-2 {
        fill: #414042;
      }

      .cls-4 {
        fill: #363d52;
        stroke: #212532;
        stroke-width: 4px;
      }

      .cls-3 {
        fill: #fff;
      }
    </style>
  </defs>
  <rect class="cls-4" x="2" y="2" width="124" height="124" rx="62" ry="62"/>
  <g>
    <g>
      <path class="cls-3" d="M22.93,80.3v3.33c27.4,23.84,54.81,23.84,82.21,0v-3.33H22.93Z"/>
      <path class="cls-1" d="M22.93,80.3l15.35,1.41c.81.07,1.31.54,1.52,1.41l.4,6.77,13.33,1.01.81-6.16c.13-.74.64-1.25,1.52-1.52h16.36c.88.27,1.38.77,1.52,1.52l.81,6.16,13.33-1.01.4-6.77c.2-.88.71-1.35,1.52-1.41l15.35-1.41v-24.85c2.02-2.63,3.91-5.35,5.66-8.18-2.36-3.97-5.15-7.61-8.38-10.91-2.9,1.35-5.66,2.93-8.28,4.75-2.69-2.49-5.66-4.65-8.89-6.46.47-3.43.74-6.87.81-10.3-3.97-1.89-8.11-3.3-12.42-4.24-1.75,2.9-3.3,5.89-4.65,8.99-3.3-.47-6.6-.47-9.9,0-1.35-3.1-2.9-6.09-4.65-8.99-4.31.94-8.45,2.36-12.42,4.24.07,3.43.34,6.87.81,10.3-3.23,1.82-6.19,3.97-8.89,6.46-2.63-1.82-5.39-3.4-8.28-4.75-3.23,3.3-6.03,6.94-8.38,10.91,1.75,2.83,3.64,5.56,5.66,8.18v24.85ZM22.93,83.63v3.94c0,27.88,82.11,27.88,82.21,0v-3.94l-13.53,1.21-.51,6.97c-.13.67-.61,1.11-1.41,1.31l-16.36,1.11c-.81,0-1.35-.37-1.62-1.11l-1.01-6.57h-13.33l-1.01,6.57c-.27.74-.81,1.11-1.62,1.11l-16.36-1.11c-.81-.2-1.28-.64-1.41-1.31l-.51-6.97-13.53-1.21Z"/>
      <path class="cls-3" d="M61.11,72.92c0,3.43,5.86,3.43,5.86,0v-8.69c0-3.43-5.86-3.43-5.86,0v8.69Z"/>
      <circle class="cls-3" cx="85.55" cy="65.45" r="9.09"/>
      <circle class="cls-3" cx="42.52" cy="65.45" r="9.09"/>
    </g>
    <g>
      <circle class="cls-2" cx="43.33" cy="66.05" r="6.06"/>
      <circle class="cls-2" cx="84.74" cy="66.05" r="6.06"/>
    </g>
  </g>
</svg>